<svg width="92" height="92" viewBox="0 0 92 92" fill="none" xmlns="http://www.w3.org/2000/svg">
<path d="M46.0111 46.0111C39.7777 46.0111 34.4416 43.7916 30.0027 39.3527C25.5639 34.9139 23.3444 29.5777 23.3444 23.3444C23.3444 17.1111 25.5639 11.775 30.0027 7.33607C34.4416 2.89718 39.7777 0.677734 46.0111 0.677734C52.2444 0.677734 57.5805 2.89718 62.0194 7.33607C66.4583 11.775 68.6777 17.1111 68.6777 23.3444C68.6777 29.5777 66.4583 34.9139 62.0194 39.3527C57.5805 43.7916 52.2444 46.0111 46.0111 46.0111ZM0.677734 91.3444V75.4778C0.677734 72.2666 1.50412 69.3152 3.1569 66.6236C4.80968 63.9319 7.00551 61.8778 9.7444 60.4611C15.6 57.5333 21.55 55.3375 27.5944 53.8736C33.6389 52.4097 39.7777 51.6777 46.0111 51.6777C52.2444 51.6777 58.3833 52.4097 64.4277 53.8736C70.4722 55.3375 76.4222 57.5333 82.2778 60.4611C85.0166 61.8778 87.2125 63.9319 88.8653 66.6236C90.518 69.3152 91.3444 72.2666 91.3444 75.4778V91.3444H0.677734Z" fill="#ECEEFE"/>
</svg>
